<svg version="1.1" id="Layer_1" xmlns="http://www.w3.org/2000/svg" xmlns:xlink="http://www.w3.org/1999/xlink" x="0px" y="0px"
	 width="100%" viewBox="0 0 242 193" enable-background="new 0 0 242 193" xml:space="preserve">
<path fill="#68ABEB" opacity="1.000000" stroke="none" 
	d="
M154.000000,194.000000 
	C102.666672,194.000000 51.833340,194.000000 1.000007,194.000000 
	C1.000005,129.666672 1.000005,65.333344 1.000002,1.000010 
	C80.333321,1.000000 159.666687,1.028274 238.999817,0.903908 
	C242.424133,0.898540 243.104218,1.575283 243.096832,5.000174 
	C242.963776,66.666550 242.963791,128.333374 243.096832,189.999741 
	C243.104218,193.424469 242.427338,194.121735 238.999420,194.100143 
	C210.833847,193.922745 182.666687,194.000000 154.000000,194.000000 
z"/>
<path fill="#FCFDFD" opacity="1.000000" stroke="none" 
	d="
M164.787094,90.754074 
	C163.482605,95.158844 160.777222,98.573669 158.485077,102.233215 
	C157.940567,103.102547 156.576859,104.038979 157.908997,105.202950 
	C158.930374,106.095413 160.238251,106.671196 161.570465,105.799988 
	C168.514816,101.258728 175.337296,100.841660 182.511841,105.583595 
	C184.014694,106.576889 187.192413,104.992966 188.744080,105.963058 
	C195.151627,109.969032 200.467896,107.993484 206.906219,105.280701 
	C215.574005,101.628532 224.779999,106.699036 228.522156,115.459999 
	C229.555618,117.879517 230.234619,120.523201 230.623917,123.131546 
	C231.813019,131.098892 230.070023,139.068893 230.084991,147.068573 
	C230.108215,159.476669 218.388153,165.043121 205.861572,159.925919 
	C202.631577,158.606445 199.722610,159.300507 196.552460,159.275925 
	C187.330032,159.204391 178.140808,161.438080 169.084595,160.268814 
	C164.732773,159.706940 161.014221,159.358292 156.791885,160.730408 
	C150.442184,162.793854 143.941574,162.248520 137.748245,159.635239 
	C135.851669,158.834976 134.179047,158.296036 132.058411,159.013458 
	C123.653709,161.856827 114.950005,161.166031 106.319275,160.692352 
	C104.428970,160.588623 102.867508,160.716965 101.089180,161.375717 
	C95.146133,163.577255 89.257629,163.552811 84.149681,159.299438 
	C82.235146,157.705215 81.001938,158.645645 79.260399,159.290131 
	C69.407387,162.936447 59.758537,163.770218 51.250336,156.048828 
	C49.446945,154.412201 48.870293,155.578293 47.755585,156.672913 
	C42.882072,161.458618 33.997612,162.857819 27.898460,159.955780 
	C23.551407,157.887405 22.128725,154.173370 22.155849,149.720734 
	C22.209616,140.894806 22.300049,132.068115 22.501570,123.244629 
	C22.572155,120.154053 22.463966,118.006531 18.313875,117.657494 
	C13.918885,117.287865 11.189519,114.230644 10.777314,109.638542 
	C10.569775,107.326477 10.463392,104.976410 10.624824,102.665436 
	C11.158613,95.023926 13.457323,92.764793 21.079622,92.065575 
	C24.376278,91.763161 27.671223,91.442101 32.156784,91.016655 
	C27.852482,86.993660 28.710234,80.896271 23.506907,78.120888 
	C22.095716,77.368179 21.706263,75.344612 22.562881,73.604935 
	C23.749010,71.196075 24.465031,68.678513 24.111902,65.816330 
	C30.145750,68.389359 32.224190,72.753021 30.310478,78.177742 
	C29.141968,81.490067 32.661877,88.290146 36.651413,90.427742 
	C40.298195,92.381691 44.242767,91.067772 46.967308,86.985672 
	C52.320049,78.965843 59.716396,74.013046 69.185097,72.159851 
	C70.980293,71.808502 72.756432,71.336182 74.563850,71.075760 
	C78.679787,70.482712 80.439163,69.110764 79.368874,64.174393 
	C77.036522,53.417137 80.205414,46.263916 88.260323,41.281662 
	C96.180496,36.382748 104.428482,36.874790 112.876167,43.165955 
	C115.006821,44.752697 116.766266,45.443153 119.471588,44.151981 
	C125.442360,43.750641 130.705658,41.749619 136.153366,40.605995 
	C137.940216,40.230885 139.648788,39.644249 141.713379,40.779232 
	C147.517944,40.934502 151.746857,43.909534 155.998581,46.843075 
	C158.455688,48.538387 160.905579,50.246853 163.409195,51.871628 
	C175.909103,59.983727 192.467499,53.312569 201.520645,46.747437 
	C203.502762,45.310059 203.968109,43.628433 203.319336,41.144005 
	C202.530670,38.123955 202.412872,34.928707 201.995193,31.375217 
	C202.501328,29.581663 202.850601,27.640781 204.794540,29.624487 
	C205.663376,30.511082 206.292618,31.368053 207.684082,30.265326 
	C205.162003,31.218859 204.454575,26.825367 201.346954,28.431393 
	C201.778580,26.113876 198.014511,23.041563 202.584137,21.282087 
	C205.189682,22.595114 207.959671,21.463970 210.662598,22.694223 
	C213.316727,24.041578 216.269226,24.853724 214.093491,28.524141 
	C213.893845,28.860949 214.077774,29.520584 214.248199,29.967562 
	C221.314346,48.501343 208.110855,71.011841 189.492783,80.748238 
	C182.250031,84.535858 174.793930,87.753006 166.373688,89.646645 
	C163.675644,90.225685 161.522507,89.626587 159.579041,89.045036 
	C161.005508,89.809860 163.003891,89.454475 164.787094,90.754074 
z"/>
<path fill="#2678C5" opacity="1.000000" stroke="none" 
	d="
M141.954010,40.628674 
	C135.500137,42.723167 128.971939,44.470787 122.457733,46.269070 
	C121.066856,46.653030 119.774467,47.130379 119.840652,44.510323 
	C119.906319,43.428555 119.979767,42.719528 120.026428,41.653893 
	C124.984482,37.712269 130.730225,35.840832 136.863556,34.028610 
	C139.281631,35.787613 140.697968,37.958187 141.954010,40.628674 
z"/>
<path fill="#F0F6FB" opacity="1.000000" stroke="none" 
	d="
M137.228439,33.731075 
	C132.550858,38.246670 127.040955,40.553658 120.414566,41.276657 
	C120.013588,40.239738 120.027534,39.182186 120.042168,37.728012 
	C123.526764,33.117546 128.527328,32.133850 133.848358,31.087563 
	C136.013779,30.835871 136.655746,32.051495 137.228439,33.731075 
z"/>
<path fill="#2678C5" opacity="1.000000" stroke="none" 
	d="
M134.211456,30.822100 
	C130.405197,34.591457 125.897781,36.520638 120.437286,37.274048 
	C120.079475,35.509476 120.116104,33.687557 120.088745,31.416103 
	C123.744919,28.443590 127.910912,27.610529 132.672668,27.949226 
	C133.411713,28.950159 133.803986,29.723072 134.211456,30.822100 
z"/>
<path fill="#E5F5FC" opacity="1.000000" stroke="none" 
	d="
M102.270607,176.517532 
	C104.570328,178.949463 103.344315,181.844391 103.551857,184.564102 
	C103.701782,186.528732 102.388489,187.029755 100.686035,187.135468 
	C98.910217,187.245743 97.278458,187.057007 96.466179,185.262573 
	C95.662621,183.487411 96.188194,181.642715 97.921707,181.081772 
	C100.309868,180.308960 101.186119,178.624710 102.270607,176.517532 
z"/>
<path fill="#EDF4FB" opacity="1.000000" stroke="none" 
	d="
M132.980682,27.835224 
	C129.215515,30.169334 125.176628,31.126785 120.450737,30.950741 
	C120.186867,29.568489 120.348976,28.170418 120.675697,26.462101 
	C123.544556,24.928534 126.163223,23.242371 129.674927,24.754629 
	C131.641937,25.034140 132.294022,26.261286 132.980682,27.835224 
z"/>
<path fill="#3F88CB" opacity="1.000000" stroke="none" 
	d="
M201.143158,28.602531 
	C203.085739,26.222000 205.225327,23.612347 206.340744,29.087753 
	C208.211166,29.245018 208.232300,25.553602 210.597275,26.962788 
	C211.662781,27.597677 211.893707,28.847000 211.884583,30.024643 
	C211.872391,31.599806 211.907700,33.526840 209.938232,30.904730 
	C209.779251,30.693096 209.520706,30.556271 209.308426,30.384674 
	C206.858765,35.939293 205.046280,32.284779 203.141937,29.958004 
	C202.929504,30.210268 202.717087,30.462532 202.245087,30.827991 
	C201.750488,30.241350 201.515472,29.541513 201.143158,28.602531 
z"/>
<path fill="#E9F2FC" opacity="1.000000" stroke="none" 
	d="
M121.151443,16.804218 
	C119.112473,16.769096 119.435364,14.723432 118.278488,14.175463 
	C116.133324,13.159389 118.360710,11.189329 117.290993,9.966845 
	C119.165863,9.304040 121.035049,8.211949 122.918373,8.186993 
	C123.685562,8.176827 126.563942,9.317085 125.000450,11.925780 
	C124.540642,12.692983 126.463448,14.022235 124.307068,14.848284 
	C123.255470,15.671875 122.672997,16.652908 121.151443,16.804218 
z"/>
<path fill="#2376C4" opacity="1.000000" stroke="none" 
	d="
M234.902954,23.806353 
	C236.574387,26.619789 234.746735,28.231213 233.007874,29.535095 
	C231.498413,30.666981 230.013138,29.194487 229.365524,28.155886 
	C228.694885,27.080343 226.919052,25.436258 229.218903,24.037985 
	C230.957977,22.980663 232.613724,20.366892 234.902954,23.806353 
z"/>
<path fill="#E7F1FB" opacity="1.000000" stroke="none" 
	d="
M156.806305,181.034546 
	C159.296249,179.915543 161.212570,180.488983 162.049057,182.570465 
	C162.525421,183.755814 162.171692,185.668152 160.961533,186.519257 
	C159.570404,187.497589 157.681503,187.490372 156.339691,186.333359 
	C154.461670,184.713989 154.817154,182.873550 156.806305,181.034546 
z"/>
<path fill="#1E73C3" opacity="1.000000" stroke="none" 
	d="
M213.694275,9.758276 
	C215.770340,10.770675 216.682587,12.022509 215.462479,13.979505 
	C214.485123,15.547171 213.391083,16.562832 211.126144,16.091026 
	C208.891129,15.625456 209.064514,13.582767 209.084198,12.706075 
	C209.139709,10.232566 211.073456,9.361407 213.694275,9.758276 
z"/>
<path fill="#6E6A6B" opacity="1.000000" stroke="none" 
	d="
M165.120544,90.887718 
	C157.450302,90.837196 155.723679,89.558434 155.548035,83.373863 
	C157.739822,87.316483 161.231476,88.841141 165.643951,89.502747 
	C165.730515,90.080055 165.494385,90.407883 165.120544,90.887718 
z"/>
<path fill="#EBF2F9" opacity="1.000000" stroke="none" 
	d="
M82.522743,186.449310 
	C81.861923,183.000519 81.813850,179.814224 82.797981,176.625397 
	C84.437927,179.954498 86.643204,182.936859 86.654907,186.687561 
	C85.369774,186.687561 84.085167,186.687561 82.522743,186.449310 
z"/>
<path fill="#2376C4" opacity="1.000000" stroke="none" 
	d="
M129.957489,24.607483 
	C127.338005,26.312649 124.590256,27.264231 121.183273,26.295578 
	C120.912346,25.506651 120.984383,24.861448 121.037582,23.892214 
	C121.654381,20.673592 123.712479,20.245026 126.596931,20.752411 
	C128.413040,21.653660 129.408371,22.753237 129.957489,24.607483 
z"/>
<path fill="#EFF6FD" opacity="1.000000" stroke="none" 
	d="
M227.042297,12.557134 
	C225.611877,14.798985 223.978546,14.978702 222.297287,13.535842 
	C221.384033,12.752063 221.029922,11.611988 221.633713,10.373952 
	C222.280136,9.048479 223.334824,8.200057 224.784378,8.476665 
	C226.745178,8.850826 227.435028,10.279063 227.042297,12.557134 
z"/>
<path fill="#E9EFF9" opacity="1.000000" stroke="none" 
	d="
M138.480438,181.865936 
	C140.522217,180.053909 142.349075,179.992371 144.010117,181.710648 
	C145.184097,182.925064 145.280121,184.387405 144.284805,185.793701 
	C143.259079,187.242935 141.690948,187.266769 140.229065,186.902725 
	C137.588318,186.245148 137.649719,184.279022 138.480438,181.865936 
z"/>
<path fill="#F7FAFE" opacity="1.000000" stroke="none" 
	d="
M220.107147,20.964291 
	C222.382523,20.877417 223.746002,21.618692 223.775360,23.675316 
	C223.796829,25.179403 222.695297,26.043314 221.375015,26.455421 
	C220.088959,26.856848 219.059631,26.122679 218.495178,25.096811 
	C217.582535,23.438128 217.795517,21.931286 220.107147,20.964291 
z"/>
<path fill="#F6FAFD" opacity="1.000000" stroke="none" 
	d="
M127.011246,20.601471 
	C125.232101,21.735209 123.478394,22.540491 121.371704,23.456978 
	C120.364235,22.339308 120.484917,21.087067 120.967644,19.509130 
	C121.889076,18.089567 122.698311,16.908659 124.704498,17.050007 
	C126.181664,17.842525 126.941170,18.852722 127.011246,20.601471 
z"/>
<path fill="#D6E5F8" opacity="1.000000" stroke="none" 
	d="
M152.131927,181.851486 
	C150.341995,183.230682 151.270981,185.643463 149.508224,187.033813 
	C147.541260,185.149124 147.693939,182.976913 148.768356,181.248550 
	C149.531937,180.020187 151.285034,179.725601 152.131927,181.851486 
z"/>
<path fill="#E6E8F7" opacity="1.000000" stroke="none" 
	d="
M134.446808,180.688416 
	C134.185059,182.863464 133.775848,184.718246 133.252533,187.090195 
	C131.045166,185.435455 132.519073,182.654053 130.753082,181.332901 
	C130.673691,181.273514 131.625931,179.142517 132.475006,178.699310 
	C133.704102,178.057709 133.793839,179.652664 134.446808,180.688416 
z"/>
<path fill="#DDECF9" opacity="1.000000" stroke="none" 
	d="
M108.449875,185.379669 
	C107.670784,183.573532 105.689346,181.809982 108.556274,180.748627 
	C110.643944,179.975739 112.119835,180.728989 111.763992,183.729431 
	C111.659752,186.455994 110.625252,187.029541 108.449875,185.379669 
z"/>
<path fill="#DDECF9" opacity="1.000000" stroke="none" 
	d="
M123.449875,185.379669 
	C122.670769,183.573517 120.689362,181.809982 123.556290,180.748627 
	C125.643959,179.975739 127.119850,180.728973 126.764008,183.729431 
	C126.659744,186.455963 125.625252,187.029526 123.449875,185.379669 
z"/>
<path fill="#F0EDF7" opacity="1.000000" stroke="none" 
	d="
M90.355080,181.643768 
	C94.510513,181.810364 92.815285,184.452209 92.208618,186.279739 
	C91.889168,187.242096 90.418243,187.123016 90.160866,185.830521 
	C89.914703,184.594345 90.124962,183.267273 90.355080,181.643768 
z"/>
<path fill="#2A7BC6" opacity="1.000000" stroke="none" 
	d="
M124.889694,16.812836 
	C124.222542,18.212259 123.113441,18.913858 121.367935,19.163761 
	C120.987991,18.667526 120.946609,18.142561 120.867752,17.224525 
	C121.424103,15.720547 120.997612,13.405765 123.764679,14.750435 
	C124.254601,15.482538 124.490692,16.023815 124.889694,16.812836 
z"/>
<path fill="#545152" opacity="1.000000" stroke="none" 
	d="
M210.828033,22.530983 
	C208.360519,23.032450 205.623550,23.879719 203.090759,21.480114 
	C205.568817,20.887611 208.207138,20.829716 210.828033,22.530983 
z"/>
<path fill="#E7F1FA" opacity="1.000000" stroke="none" 
	d="
M107.961197,185.156433 
	C109.406952,185.278473 110.578079,185.637024 111.614471,184.262344 
	C113.298431,185.838562 112.244164,186.826767 110.630142,187.167862 
	C109.268234,187.455704 107.280067,187.952103 107.961197,185.156433 
z"/>
<path fill="#E7F1FA" opacity="1.000000" stroke="none" 
	d="
M122.961197,185.156433 
	C124.406944,185.278366 125.578110,185.637085 126.614487,184.262329 
	C128.298401,185.838547 127.244179,186.826782 125.630142,187.167862 
	C124.268280,187.455673 122.280029,187.952148 122.961197,185.156433 
z"/>
<path fill="#E92323" opacity="1.000000" stroke="none" 
	d="
M105.005951,112.504791 
	C105.446167,97.706520 102.066948,98.383072 119.369919,97.998108 
	C121.364655,97.953720 123.361237,97.991905 125.356964,97.992104 
	C132.886429,97.992851 132.809235,97.995461 133.067337,105.758179 
	C133.208893,110.015335 132.536438,114.090912 130.654175,117.859428 
	C127.909271,123.355057 124.891273,128.713699 122.052628,134.163513 
	C121.417694,135.382492 119.787163,136.581970 120.831718,138.038818 
	C121.621277,139.140015 123.263741,138.614059 124.582283,138.672668 
	C126.883446,138.774918 129.966705,136.555710 131.324295,139.664566 
	C132.878860,143.224442 132.223633,147.189453 131.336136,150.928360 
	C130.958572,152.519012 129.150696,152.441101 127.986130,152.625397 
	C121.914345,153.586319 115.809074,154.287735 109.630524,154.008606 
	C106.218941,153.854492 104.428650,152.083755 104.153778,148.777405 
	C103.789124,144.391113 104.189209,140.187912 106.798256,136.368164 
	C109.703171,132.115219 112.426041,127.736359 115.171898,123.376877 
	C117.283531,120.024307 119.276260,116.601936 120.595818,112.422577 
	C115.661407,111.301781 111.168228,113.351547 106.184113,112.956833 
	C105.509979,112.972603 105.291428,112.906624 105.005951,112.504791 
z"/>
<path fill="#FFD834" opacity="1.000000" stroke="none" 
	d="
M198.630646,140.629105 
	C198.251450,142.782486 198.214340,144.611771 198.172302,146.440933 
	C198.043121,152.061050 194.723892,154.484497 189.284042,153.071304 
	C186.462326,152.338257 186.428574,150.171844 186.381195,147.984634 
	C186.255249,142.169373 186.384460,136.338898 185.987885,130.543533 
	C185.809723,127.939781 186.035461,123.742188 182.491104,123.835449 
	C179.268875,123.920235 179.064896,127.947227 178.907196,130.697021 
	C178.545807,136.998962 178.482513,143.319031 178.354660,149.632874 
	C178.293747,152.640839 177.181671,154.308319 173.843063,154.009552 
	C170.881348,153.744522 167.665680,154.326675 167.209229,149.897049 
	C166.802643,145.951248 167.083832,141.912933 165.427643,137.827911 
	C162.342453,136.092056 163.026642,133.452026 162.913849,130.643707 
	C163.060623,127.786964 164.647308,125.947807 165.603821,123.400467 
	C165.782944,121.013336 165.788681,119.025055 165.829193,117.037483 
	C165.899048,113.610481 165.159653,109.796837 170.238907,109.044495 
	C174.955719,108.345848 178.020706,109.711754 178.086334,115.321564 
	C179.501343,114.588615 180.496948,114.043655 181.517120,113.549347 
	C187.028290,110.879005 190.962646,112.161598 193.889236,117.623421 
	C195.552505,120.727562 196.307434,124.126564 197.036499,127.959587 
	C200.725922,131.884720 200.960236,135.923370 198.630646,140.629105 
z"/>
<path fill="#2FBE71" opacity="1.000000" stroke="none" 
	d="
M165.246643,129.907410 
	C165.045807,132.447006 165.018143,134.615585 165.034164,137.182404 
	C164.882355,138.724213 164.636459,139.861755 164.499039,141.012253 
	C162.738739,155.749557 154.565582,155.618195 144.522659,154.763260 
	C140.394333,154.411819 137.628342,151.935791 136.339371,147.816879 
	C133.811905,139.740494 133.129135,131.536453 134.674164,123.236694 
	C136.145706,115.331566 139.978745,111.481468 146.295944,111.013969 
	C155.011246,110.369003 160.231125,113.430679 163.223419,120.962875 
	C163.528702,121.731361 163.742920,122.536034 164.129272,123.677437 
	C165.204987,125.748268 165.585281,127.584801 165.246643,129.907410 
z"/>
<path fill="#2175C3" opacity="1.000000" stroke="none" 
	d="
M81.890488,120.962868 
	C83.401314,128.887161 83.704178,136.478226 82.142456,144.064316 
	C80.575493,151.675888 76.707329,154.841949 69.033409,155.003616 
	C59.002598,155.214935 56.148449,153.353455 54.001961,144.993057 
	C52.334480,138.498337 51.879036,131.923431 52.790062,125.243011 
	C53.669792,118.792114 55.638134,113.188835 62.783348,111.324448 
	C69.774796,109.500175 76.180145,112.254272 80.874046,119.159378 
	C81.481323,119.749809 81.745018,120.138351 81.890488,120.962868 
z"/>
<path fill="#2376C4" opacity="1.000000" stroke="none" 
	d="
M29.797579,124.778755 
	C29.802584,123.140862 29.785404,121.976288 29.815779,120.812958 
	C30.051785,111.774345 30.060534,111.691078 21.166162,111.059868 
	C18.866426,110.896660 18.011623,110.086250 17.774002,107.829384 
	C16.958145,100.080559 17.585146,99.131714 25.116171,98.856087 
	C32.586060,98.582680 40.073360,98.703125 47.534653,98.305794 
	C52.413918,98.045967 52.708424,100.817390 52.950245,104.541397 
	C53.193165,108.282310 52.571053,110.570724 48.270329,110.953369 
	C41.120773,111.589485 41.090481,111.731209 41.424286,118.876274 
	C41.850849,128.006790 42.494968,137.129333 42.778984,146.263596 
	C42.985958,152.920242 41.770443,154.025314 35.572918,154.051300 
	C29.796644,154.075516 29.283283,153.550552 29.350386,146.684326 
	C29.420212,139.539658 29.642052,132.396484 29.797579,124.778755 
z"/>
<path fill="#2376C4" opacity="1.000000" stroke="none" 
	d="
M198.464081,141.257538 
	C197.901077,137.028503 197.511353,133.103760 197.125519,128.771759 
	C198.792435,127.884186 198.667221,126.402794 198.943451,125.139259 
	C199.623901,122.026642 200.702927,119.082802 202.584167,116.470032 
	C205.232483,112.791916 208.814880,111.015785 213.320084,111.485710 
	C217.733963,111.946098 220.497772,114.668091 222.142914,118.624146 
	C223.505356,121.900352 223.940079,125.346321 223.820709,128.876205 
	C223.594818,135.556335 221.976364,136.911499 215.237152,136.280029 
	C212.723068,136.044464 209.627945,134.943314 209.882446,139.589798 
	C210.117828,143.887299 211.449509,144.954697 215.512527,143.514160 
	C217.782990,142.709167 220.175629,140.614883 222.410873,142.784393 
	C224.656967,144.964432 223.400131,147.754318 222.475601,150.267471 
	C221.417328,153.144165 219.703720,154.926468 216.293564,155.057663 
	C207.265518,155.405014 201.470261,151.093842 198.464081,141.257538 
z"/>
<path fill="#FFD835" opacity="1.000000" stroke="none" 
	d="
M82.311005,121.518555 
	C81.617500,120.839119 81.350533,120.355530 81.094513,119.654671 
	C81.451988,116.213097 80.947693,112.390739 86.204132,112.916161 
	C88.167305,113.112396 88.066071,111.475082 88.080559,110.162148 
	C88.113403,107.185112 88.255028,104.198143 88.072174,101.232498 
	C87.806450,96.923050 90.557037,95.854675 93.942101,95.502518 
	C97.753853,95.105965 98.131836,97.897598 98.372009,100.648178 
	C98.529984,102.457359 98.806870,104.308411 98.591377,106.087532 
	C98.074081,110.358398 99.364777,112.693871 104.506073,112.079338 
	C105.145195,112.332771 105.327705,112.519684 105.607544,112.884140 
	C106.646988,116.576172 106.277740,119.503960 101.819984,119.758667 
	C98.970100,119.921501 98.755592,121.519455 98.888283,123.729515 
	C99.394966,132.168701 99.871376,140.609955 100.302864,149.053314 
	C100.615257,155.166473 96.060242,157.948837 90.499748,155.229172 
	C88.220810,154.114532 88.176193,152.235306 88.168106,150.220306 
	C88.138161,142.758011 87.884926,135.285995 88.190735,127.837135 
	C88.364128,123.613632 87.446098,121.194328 82.311005,121.518555 
z"/>
<path fill="#666263" opacity="1.000000" stroke="none" 
	d="
M144.078400,65.201385 
	C143.218109,64.421593 142.473312,63.887459 142.254318,63.188560 
	C142.000290,62.377842 142.770004,62.232578 143.491180,62.229141 
	C149.362564,62.201168 149.362534,62.194050 151.340958,57.263779 
	C152.875763,59.974728 152.280670,62.233978 150.616547,64.136024 
	C148.983337,66.002731 146.849075,66.765129 144.078400,65.201385 
z"/>
<path fill="#F2F3CF" opacity="1.000000" stroke="none" 
	d="
M165.385696,129.994095 
	C164.783630,128.452347 164.493774,126.626274 164.231537,124.415581 
	C164.628006,123.762123 164.996872,123.493286 165.563660,123.112869 
	C166.226822,125.242065 166.332047,127.479424 165.385696,129.994095 
z"/>
<path fill="#6EB2EE" opacity="1.000000" stroke="none" 
	d="
M100.999161,183.975464 
	C100.630310,185.369431 100.058495,186.129944 98.911415,185.227997 
	C97.950165,184.472153 98.031761,183.475830 98.928490,182.748642 
	C100.040146,181.847168 100.653587,182.543839 100.999161,183.975464 
z"/>
<path fill="#76B3EF" opacity="1.000000" stroke="none" 
	d="
M142.703400,183.232071 
	C142.752884,184.785538 142.369171,185.847382 140.868729,185.411530 
	C140.036423,185.169739 139.810806,184.229965 140.090057,183.434555 
	C140.594727,181.997101 141.494370,181.884415 142.703400,183.232071 
z"/>
<path fill="#F4FCF8" opacity="1.000000" stroke="none" 
	d="
M153.184082,127.154465 
	C154.194489,132.336075 154.406311,137.116882 153.280228,141.885910 
	C152.931046,143.364624 152.429550,144.839081 150.553711,144.988144 
	C148.505875,145.150864 147.529770,143.790848 146.993011,142.136246 
	C145.418320,137.282028 145.745697,132.288528 146.247406,127.331474 
	C146.428268,125.544525 146.963928,123.502632 149.146744,123.145561 
	C151.749878,122.719719 152.429977,124.820999 153.184082,127.154465 
z"/>
<path fill="#F3F8FC" opacity="1.000000" stroke="none" 
	d="
M64.094398,134.843597 
	C64.076981,131.574020 63.891735,128.738327 64.784164,125.994049 
	C65.265526,124.513847 65.913391,123.170624 67.715736,123.035042 
	C69.767441,122.880707 70.773987,124.234024 71.258392,125.906960 
	C72.813293,131.276932 72.686913,136.736526 71.697182,142.174667 
	C71.427177,143.658203 70.633636,144.993271 68.755806,145.054642 
	C66.982529,145.112595 65.984337,144.069382 65.367775,142.614594 
	C64.379959,140.283813 64.156761,137.799316 64.094398,134.843597 
z"/>
<path fill="#69AAE8" opacity="1.000000" stroke="none" 
	d="
M213.639648,127.697159 
	C211.242157,128.011902 209.516510,127.885490 210.026123,125.081673 
	C210.376205,123.155640 211.792633,121.767853 213.405319,122.400169 
	C216.119568,123.464378 215.320435,125.648720 213.639648,127.697159 
z"/>
</svg>