<?xml version="1.0" standalone="no"?>
<!DOCTYPE svg PUBLIC "-//W3C//DTD SVG 20010904//EN"
 "http://www.w3.org/TR/2001/REC-SVG-20010904/DTD/svg10.dtd">
<svg version="1.0" xmlns="http://www.w3.org/2000/svg"
 width="242.000000pt" height="193.000000pt" viewBox="0 0 242.000000 193.000000"
 preserveAspectRatio="xMidYMid meet">

<g transform="translate(0.000000,193.000000) scale(0.100000,-0.100000)"
fill="#000000" stroke="none">
<path d="M2090 1833 c0 -7 -6 -13 -12 -13 -10 0 -9 -3 1 -9 8 -5 10 -14 6 -22
-6 -9 -3 -11 8 -6 10 3 17 2 17 -3 0 -6 8 -5 20 2 10 7 17 14 15 17 -3 2 0 10
6 18 9 10 8 13 -5 13 -9 0 -16 4 -16 8 0 4 -9 8 -20 8 -11 0 -20 -6 -20 -13z"/>
<path d="M1205 1779 c-4 -11 -4 -23 -2 -26 9 -8 27 7 27 22 0 23 -18 27 -25 4z"/>
<path d="M1233 1714 c-18 -8 -33 -19 -33 -24 0 -13 60 -13 80 0 13 8 13 11 0
23 -13 12 -20 12 -47 1z"/>
<path d="M2030 1721 c8 -5 35 -11 60 -15 l45 -6 -30 15 c-33 15 -102 21 -75 6z"/>
<path d="M2317 1722 c-5 -7 -11 -11 -15 -9 -4 2 -15 -4 -24 -15 -10 -10 -13
-18 -8 -18 6 0 10 -6 10 -14 0 -7 9 -16 20 -19 11 -3 20 -1 20 5 0 6 6 8 13 5
7 -3 12 4 12 19 0 13 -3 24 -7 24 -3 0 -8 8 -10 18 -3 12 -6 14 -11 4z"/>
<path d="M2014 1665 c-4 -9 -4 -19 0 -22 3 -4 6 -1 6 6 0 7 5 9 10 6 6 -3 10
-15 10 -26 0 -26 27 -24 35 2 6 17 9 19 16 8 6 -10 9 -8 9 9 0 12 -4 22 -10
22 -5 0 -15 -10 -22 -22 l-12 -23 -6 24 c-7 30 -28 39 -36 16z"/>
<path d="M1285 1640 c-11 -5 -35 -9 -52 -9 -22 -1 -33 -6 -33 -15 0 -8 -3 -22
-7 -31 -5 -15 -1 -16 28 -10 44 9 121 53 114 66 -7 11 -23 11 -50 -1z"/>
<path d="M1331 1573 c-19 -13 -59 -30 -88 -39 -40 -12 -53 -20 -53 -35 0 -26
-2 -26 183 22 39 10 40 18 5 60 -12 15 -16 14 -47 -8z"/>
<path d="M1500 1347 c0 -9 -10 -23 -21 -31 -20 -13 -25 -13 -51 0 -28 15 -29
14 -19 -5 23 -43 85 -34 97 15 4 14 4 28 0 31 -3 4 -6 -1 -6 -10z"/>
<path d="M1540 1092 c0 -36 78 -79 95 -52 3 6 -5 10 -19 10 -15 0 -36 12 -51
27 -14 15 -25 22 -25 15z"/>
<path d="M1078 953 c-22 -3 -29 -11 -33 -37 -4 -18 -5 -48 -3 -67 l3 -34 78 4
c42 2 77 0 77 -3 0 -14 -44 -91 -103 -184 -55 -86 -61 -100 -62 -149 0 -66 17
-83 84 -83 53 0 171 16 179 24 2 3 7 28 10 56 6 67 -5 78 -68 72 -28 -2 -50 0
-50 5 0 5 25 53 55 108 61 111 81 180 71 249 l-7 46 -102 -1 c-56 -1 -114 -4
-129 -6z"/>
<path d="M174 936 c-3 -7 -4 -33 -2 -57 l3 -44 58 -3 57 -3 0 -208 c0 -230 -3
-221 65 -221 56 0 58 9 54 227 l-4 198 49 7 c27 4 53 11 57 15 5 5 6 30 3 56
l-7 47 -164 0 c-130 0 -165 -3 -169 -14z"/>
<path d="M605 821 c-31 -14 -65 -54 -75 -92 -27 -94 1 -286 46 -315 37 -25
123 -28 164 -7 56 29 74 79 75 198 0 111 -19 166 -70 199 -30 20 -111 30 -140
17z m94 -125 c15 -18 24 -133 13 -171 -12 -42 -57 -48 -72 -10 -14 37 -13 168
2 183 16 16 43 15 57 -2z"/>
<path d="M2041 795 c-53 -46 -81 -164 -60 -263 15 -76 64 -127 131 -137 71
-11 108 20 108 91 0 33 -17 38 -70 19 -50 -18 -58 -13 -62 35 l-3 35 55 3 c30
2 60 8 67 14 18 14 17 120 -1 162 -29 69 -108 88 -165 41z m97 -108 c3 -37 2
-38 -25 -35 -23 2 -28 7 -25 28 4 40 11 52 29 48 13 -2 19 -14 21 -41z"/>
</g>
</svg>
